<mxfile host="app.diagrams.net" modified="2024-07-02T18:05:02.147Z" agent="Mozilla/5.0 (Macintosh; Intel Mac OS X 10_15_7) AppleWebKit/537.36 (KHTML, like Gecko) Chrome/125.0.0.0 Safari/537.36" etag="rm7g7NwqjdCFtYSLPBOd" version="24.6.4" type="device">
  <diagram name="Page-1" id="WYZ6cibkrFNUXhECs_Jk">
    <mxGraphModel dx="760" dy="476" grid="1" gridSize="10" guides="1" tooltips="1" connect="1" arrows="1" fold="1" page="1" pageScale="1" pageWidth="850" pageHeight="1100" math="0" shadow="0">
      <root>
        <mxCell id="0" />
        <mxCell id="1" parent="0" />
        <mxCell id="gRMszufTlYzXkd9XCzZ1-1" value="[Maintain] Data center cooling" style="shape=parallelogram;perimeter=parallelogramPerimeter;whiteSpace=wrap;html=1;fixedSize=1;" parent="1" vertex="1">
          <mxGeometry x="250" y="70" width="210" height="60" as="geometry" />
        </mxCell>
        <mxCell id="gRMszufTlYzXkd9XCzZ1-13" style="edgeStyle=orthogonalEdgeStyle;rounded=0;orthogonalLoop=1;jettySize=auto;html=1;entryX=1;entryY=1;entryDx=0;entryDy=0;endArrow=none;endFill=0;exitX=0.5;exitY=0;exitDx=0;exitDy=0;" parent="1" source="gRMszufTlYzXkd9XCzZ1-2" target="gRMszufTlYzXkd9XCzZ1-11" edge="1">
          <mxGeometry relative="1" as="geometry" />
        </mxCell>
        <mxCell id="gRMszufTlYzXkd9XCzZ1-2" value="[Achieve] Turn on cooler when environment goes warm" style="shape=parallelogram;perimeter=parallelogramPerimeter;whiteSpace=wrap;html=1;fixedSize=1;" parent="1" vertex="1">
          <mxGeometry x="370" y="210" width="210" height="60" as="geometry" />
        </mxCell>
        <mxCell id="gRMszufTlYzXkd9XCzZ1-14" style="edgeStyle=orthogonalEdgeStyle;rounded=0;orthogonalLoop=1;jettySize=auto;html=1;entryX=0;entryY=1;entryDx=0;entryDy=0;endArrow=none;endFill=0;exitX=0.5;exitY=0;exitDx=0;exitDy=0;" parent="1" source="gRMszufTlYzXkd9XCzZ1-4" target="gRMszufTlYzXkd9XCzZ1-11" edge="1">
          <mxGeometry relative="1" as="geometry" />
        </mxCell>
        <mxCell id="gRMszufTlYzXkd9XCzZ1-4" value="Cooling iff environment&amp;nbsp;&lt;div&gt;is warm&lt;/div&gt;" style="shape=trapezoid;perimeter=trapezoidPerimeter;whiteSpace=wrap;html=1;fixedSize=1;" parent="1" vertex="1">
          <mxGeometry x="150" y="210" width="170" height="60" as="geometry" />
        </mxCell>
        <mxCell id="gRMszufTlYzXkd9XCzZ1-20" style="edgeStyle=orthogonalEdgeStyle;rounded=0;orthogonalLoop=1;jettySize=auto;html=1;entryX=1;entryY=0.5;entryDx=0;entryDy=0;endArrow=none;endFill=0;" parent="1" source="gRMszufTlYzXkd9XCzZ1-5" target="gRMszufTlYzXkd9XCzZ1-15" edge="1">
          <mxGeometry relative="1" as="geometry">
            <Array as="points">
              <mxPoint x="590" y="305" />
            </Array>
          </mxGeometry>
        </mxCell>
        <mxCell id="gRMszufTlYzXkd9XCzZ1-5" value="[Achieve] temperature sensor &amp;gt; 30 Degree" style="shape=parallelogram;perimeter=parallelogramPerimeter;whiteSpace=wrap;html=1;fixedSize=1;" parent="1" vertex="1">
          <mxGeometry x="530" y="340" width="100" height="60" as="geometry" />
        </mxCell>
        <mxCell id="gRMszufTlYzXkd9XCzZ1-19" style="edgeStyle=orthogonalEdgeStyle;rounded=0;orthogonalLoop=1;jettySize=auto;html=1;entryX=0;entryY=0.5;entryDx=0;entryDy=0;exitX=0.5;exitY=0;exitDx=0;exitDy=0;endArrow=none;endFill=0;" parent="1" source="gRMszufTlYzXkd9XCzZ1-6" target="gRMszufTlYzXkd9XCzZ1-15" edge="1">
          <mxGeometry relative="1" as="geometry" />
        </mxCell>
        <mxCell id="gRMszufTlYzXkd9XCzZ1-6" value="[Maintain] Cooler on" style="shape=parallelogram;perimeter=parallelogramPerimeter;whiteSpace=wrap;html=1;fixedSize=1;" parent="1" vertex="1">
          <mxGeometry x="300" y="340" width="150" height="60" as="geometry" />
        </mxCell>
        <mxCell id="gRMszufTlYzXkd9XCzZ1-12" style="edgeStyle=orthogonalEdgeStyle;rounded=0;orthogonalLoop=1;jettySize=auto;html=1;entryX=0.5;entryY=1;entryDx=0;entryDy=0;" parent="1" source="gRMszufTlYzXkd9XCzZ1-11" target="gRMszufTlYzXkd9XCzZ1-1" edge="1">
          <mxGeometry relative="1" as="geometry" />
        </mxCell>
        <mxCell id="gRMszufTlYzXkd9XCzZ1-11" value=" " style="ellipse;whiteSpace=wrap;html=1;aspect=fixed;" parent="1" vertex="1">
          <mxGeometry x="350" y="160" width="10" height="10" as="geometry" />
        </mxCell>
        <mxCell id="gRMszufTlYzXkd9XCzZ1-16" style="edgeStyle=orthogonalEdgeStyle;rounded=0;orthogonalLoop=1;jettySize=auto;html=1;entryX=0.5;entryY=1;entryDx=0;entryDy=0;" parent="1" source="gRMszufTlYzXkd9XCzZ1-15" target="gRMszufTlYzXkd9XCzZ1-2" edge="1">
          <mxGeometry relative="1" as="geometry" />
        </mxCell>
        <mxCell id="gRMszufTlYzXkd9XCzZ1-15" value=" " style="ellipse;whiteSpace=wrap;html=1;aspect=fixed;" parent="1" vertex="1">
          <mxGeometry x="470" y="300" width="10" height="10" as="geometry" />
        </mxCell>
        <mxCell id="gRMszufTlYzXkd9XCzZ1-38" style="edgeStyle=orthogonalEdgeStyle;rounded=0;orthogonalLoop=1;jettySize=auto;html=1;endArrow=none;endFill=0;" parent="1" source="gRMszufTlYzXkd9XCzZ1-21" edge="1">
          <mxGeometry relative="1" as="geometry">
            <mxPoint x="430" y="495" as="targetPoint" />
          </mxGeometry>
        </mxCell>
        <mxCell id="gRMszufTlYzXkd9XCzZ1-21" value="Cooler controller" style="shape=hexagon;perimeter=hexagonPerimeter2;whiteSpace=wrap;html=1;fixedSize=1;" parent="1" vertex="1">
          <mxGeometry x="230" y="470" width="120" height="50" as="geometry" />
        </mxCell>
        <mxCell id="gRMszufTlYzXkd9XCzZ1-23" style="edgeStyle=orthogonalEdgeStyle;rounded=0;orthogonalLoop=1;jettySize=auto;html=1;entryX=0.5;entryY=1;entryDx=0;entryDy=0;endArrow=none;endFill=0;" parent="1" source="gRMszufTlYzXkd9XCzZ1-22" target="gRMszufTlYzXkd9XCzZ1-5" edge="1">
          <mxGeometry relative="1" as="geometry" />
        </mxCell>
        <mxCell id="gRMszufTlYzXkd9XCzZ1-37" style="edgeStyle=orthogonalEdgeStyle;rounded=0;orthogonalLoop=1;jettySize=auto;html=1;entryX=1;entryY=0.75;entryDx=0;entryDy=0;endArrow=none;endFill=0;" parent="1" source="gRMszufTlYzXkd9XCzZ1-22" target="gRMszufTlYzXkd9XCzZ1-34" edge="1">
          <mxGeometry relative="1" as="geometry" />
        </mxCell>
        <mxCell id="gRMszufTlYzXkd9XCzZ1-22" value="temperature sensor" style="shape=hexagon;perimeter=hexagonPerimeter2;whiteSpace=wrap;html=1;fixedSize=1;" parent="1" vertex="1">
          <mxGeometry x="630" y="470" width="120" height="50" as="geometry" />
        </mxCell>
        <mxCell id="gRMszufTlYzXkd9XCzZ1-24" value=" " style="ellipse;whiteSpace=wrap;html=1;aspect=fixed;" parent="1" vertex="1">
          <mxGeometry x="613" y="429" width="11" height="10" as="geometry" />
        </mxCell>
        <mxCell id="gRMszufTlYzXkd9XCzZ1-26" style="edgeStyle=orthogonalEdgeStyle;rounded=0;orthogonalLoop=1;jettySize=auto;html=1;entryX=0.477;entryY=0.998;entryDx=0;entryDy=0;entryPerimeter=0;endArrow=none;endFill=0;" parent="1" source="gRMszufTlYzXkd9XCzZ1-21" target="gRMszufTlYzXkd9XCzZ1-6" edge="1">
          <mxGeometry relative="1" as="geometry" />
        </mxCell>
        <mxCell id="gRMszufTlYzXkd9XCzZ1-25" value=" " style="ellipse;whiteSpace=wrap;html=1;aspect=fixed;" parent="1" vertex="1">
          <mxGeometry x="330" y="429" width="11" height="10" as="geometry" />
        </mxCell>
        <mxCell id="gRMszufTlYzXkd9XCzZ1-30" style="edgeStyle=orthogonalEdgeStyle;rounded=0;orthogonalLoop=1;jettySize=auto;html=1;entryX=0.5;entryY=1;entryDx=0;entryDy=0;endArrow=none;endFill=0;" parent="1" source="gRMszufTlYzXkd9XCzZ1-28" target="gRMszufTlYzXkd9XCzZ1-22" edge="1">
          <mxGeometry relative="1" as="geometry" />
        </mxCell>
        <mxCell id="gRMszufTlYzXkd9XCzZ1-28" value="tempValue" style="ellipse;whiteSpace=wrap;html=1;" parent="1" vertex="1">
          <mxGeometry x="660" y="570" width="120" height="60" as="geometry" />
        </mxCell>
        <mxCell id="gRMszufTlYzXkd9XCzZ1-31" style="edgeStyle=orthogonalEdgeStyle;rounded=0;orthogonalLoop=1;jettySize=auto;html=1;endArrow=none;endFill=0;" parent="1" source="gRMszufTlYzXkd9XCzZ1-29" target="gRMszufTlYzXkd9XCzZ1-21" edge="1">
          <mxGeometry relative="1" as="geometry" />
        </mxCell>
        <mxCell id="gRMszufTlYzXkd9XCzZ1-29" value="coolerStatus" style="ellipse;whiteSpace=wrap;html=1;" parent="1" vertex="1">
          <mxGeometry x="260" y="570" width="120" height="60" as="geometry" />
        </mxCell>
        <mxCell id="gRMszufTlYzXkd9XCzZ1-33" value="&lt;font style=&quot;font-size: 9px;&quot;&gt;Data structure (class)&lt;/font&gt;" style="swimlane;whiteSpace=wrap;html=1;" parent="1" vertex="1">
          <mxGeometry x="430" y="420" width="130" height="140" as="geometry" />
        </mxCell>
        <mxCell id="gRMszufTlYzXkd9XCzZ1-34" value="tempValue: float" style="text;html=1;align=left;verticalAlign=middle;whiteSpace=wrap;rounded=0;fontSize=11;" parent="gRMszufTlYzXkd9XCzZ1-33" vertex="1">
          <mxGeometry x="10" y="30" width="120" height="30" as="geometry" />
        </mxCell>
        <mxCell id="gRMszufTlYzXkd9XCzZ1-35" value="coolingStatus: boolean" style="text;html=1;align=left;verticalAlign=middle;whiteSpace=wrap;rounded=0;fontSize=11;" parent="gRMszufTlYzXkd9XCzZ1-33" vertex="1">
          <mxGeometry x="10" y="60" width="120" height="30" as="geometry" />
        </mxCell>
        <mxCell id="gRMszufTlYzXkd9XCzZ1-40" value="&lt;span style=&quot;font-size: 12px; text-wrap: nowrap;&quot;&gt;Domain property = if `tempValue` &amp;gt; 30.0 degree&amp;nbsp;&lt;/span&gt;&lt;span style=&quot;font-size: 12px; text-wrap: nowrap; background-color: initial;&quot;&gt;then env is warm&lt;/span&gt;" style="text;html=1;align=center;verticalAlign=middle;whiteSpace=wrap;rounded=0;fontSize=11;" parent="1" vertex="1">
          <mxGeometry x="330" y="650" width="345" height="30" as="geometry" />
        </mxCell>
        <mxCell id="gRMszufTlYzXkd9XCzZ1-42" value="&lt;font style=&quot;font-size: 11px;&quot;&gt;&lt;b&gt;Name&lt;/b&gt;&lt;font color=&quot;#ea6b66&quot;&gt;*&lt;/font&gt;: Data center cooling control (Monitoring and Control)&lt;/font&gt;&lt;div style=&quot;font-size: 11px;&quot;&gt;&lt;font style=&quot;font-size: 11px;&quot;&gt;&lt;b&gt;Def&lt;/b&gt;&lt;font color=&quot;#ea6b66&quot;&gt;*&lt;/font&gt;: If env temperature was over than 30.0 degree, to prevent from performance issue, we must have cooling control&lt;/font&gt;&lt;/div&gt;&lt;div style=&quot;font-size: 11px;&quot;&gt;&lt;font style=&quot;font-size: 11px;&quot;&gt;&lt;b&gt;Type&lt;/b&gt;: Maintain&lt;/font&gt;&lt;/div&gt;&lt;div style=&quot;font-size: 11px;&quot;&gt;&lt;font style=&quot;font-size: 11px;&quot;&gt;&lt;b&gt;Category&lt;/b&gt;: NFR&lt;/font&gt;&lt;/div&gt;&lt;div style=&quot;font-size: 11px;&quot;&gt;&lt;font style=&quot;font-size: 11px;&quot;&gt;&lt;b&gt;Priority&lt;/b&gt;: High&lt;/font&gt;&lt;/div&gt;" style="rounded=1;whiteSpace=wrap;html=1;dashed=1;align=left;verticalAlign=top;fillColor=#00FF80;" parent="1" vertex="1">
          <mxGeometry x="470" y="60" width="310" height="100" as="geometry" />
        </mxCell>
        <mxCell id="gRMszufTlYzXkd9XCzZ1-43" value="&lt;font style=&quot;font-size: 11px;&quot;&gt;&lt;b&gt;Name&lt;/b&gt;&lt;font color=&quot;#ea6b66&quot;&gt;*&lt;/font&gt;: Turn cooler on when env heating was over than 30 degree&lt;/font&gt;&lt;div style=&quot;font-size: 11px;&quot;&gt;&lt;font style=&quot;font-size: 11px;&quot;&gt;&lt;b&gt;Def&lt;/b&gt;&lt;font color=&quot;#ea6b66&quot;&gt;*&lt;/font&gt;: Like Name but we need to manage and control duration of cooler&lt;/font&gt;&lt;/div&gt;&lt;div style=&quot;font-size: 11px;&quot;&gt;&lt;font style=&quot;font-size: 11px;&quot;&gt;&lt;b&gt;Type&lt;/b&gt;: Achieve&lt;/font&gt;&lt;/div&gt;&lt;div style=&quot;font-size: 11px;&quot;&gt;&lt;font style=&quot;font-size: 11px;&quot;&gt;Category: FR&lt;/font&gt;&lt;/div&gt;" style="rounded=1;whiteSpace=wrap;html=1;dashed=1;align=left;verticalAlign=top;fillColor=#00FF80;" parent="1" vertex="1">
          <mxGeometry x="610" y="190" width="200" height="100" as="geometry" />
        </mxCell>
        <mxCell id="gRMszufTlYzXkd9XCzZ1-44" value="&lt;font style=&quot;font-size: 11px;&quot;&gt;&lt;b&gt;Name&lt;/b&gt;&lt;font color=&quot;#ea6b66&quot;&gt;*&lt;/font&gt;: Temperature check&lt;/font&gt;&lt;div style=&quot;font-size: 11px;&quot;&gt;&lt;font style=&quot;font-size: 11px;&quot;&gt;&lt;b&gt;Def&lt;/b&gt;&lt;font color=&quot;#ea6b66&quot;&gt;*&lt;/font&gt;: Check temperature when degree grater than 30.0&lt;/font&gt;&lt;/div&gt;&lt;div style=&quot;font-size: 11px;&quot;&gt;&lt;font style=&quot;font-size: 11px;&quot;&gt;&lt;b&gt;Type&lt;/b&gt;: Achieve&lt;/font&gt;&lt;/div&gt;&lt;div style=&quot;font-size: 11px;&quot;&gt;&lt;font style=&quot;font-size: 11px;&quot;&gt;&lt;b&gt;Category&lt;/b&gt;: FR&lt;/font&gt;&lt;/div&gt;" style="rounded=1;whiteSpace=wrap;html=1;dashed=1;align=left;verticalAlign=top;fillColor=#00FF80;" parent="1" vertex="1">
          <mxGeometry x="640" y="330" width="200" height="80" as="geometry" />
        </mxCell>
        <mxCell id="gRMszufTlYzXkd9XCzZ1-45" value="&lt;font style=&quot;font-size: 11px;&quot;&gt;&lt;b&gt;Name&lt;/b&gt;&lt;font color=&quot;#ea6b66&quot;&gt;*&lt;/font&gt;: Turning on Cooler Digitally&lt;/font&gt;&lt;div style=&quot;font-size: 11px;&quot;&gt;&lt;font style=&quot;font-size: 11px;&quot;&gt;&lt;b&gt;Def&lt;/b&gt;&lt;font color=&quot;#ea6b66&quot;&gt;*&lt;/font&gt;: Turning on cooler remotely with software controller&lt;/font&gt;&lt;/div&gt;&lt;div style=&quot;font-size: 11px;&quot;&gt;&lt;font style=&quot;font-size: 11px;&quot;&gt;&lt;b&gt;Type&lt;/b&gt;: Maintain&lt;/font&gt;&lt;/div&gt;&lt;div style=&quot;font-size: 11px;&quot;&gt;&lt;font style=&quot;font-size: 11px;&quot;&gt;&lt;b&gt;Category:&amp;nbsp;&lt;/b&gt;&lt;/font&gt;&lt;span style=&quot;background-color: initial;&quot;&gt;FR&lt;/span&gt;&lt;b style=&quot;background-color: initial;&quot;&gt;&amp;nbsp;&lt;/b&gt;&lt;/div&gt;" style="rounded=1;whiteSpace=wrap;html=1;dashed=1;align=left;verticalAlign=top;fillColor=#00FF80;" parent="1" vertex="1">
          <mxGeometry x="80" y="330" width="200" height="80" as="geometry" />
        </mxCell>
      </root>
    </mxGraphModel>
  </diagram>
</mxfile>
